<?xml version="1.0" standalone="no"?><!DOCTYPE svg PUBLIC "-//W3C//DTD SVG 1.1//EN" "http://www.w3.org/Graphics/SVG/1.1/DTD/svg11.dtd"><svg t="1710035706209" class="icon" viewBox="0 0 1024 1024" version="1.1" xmlns="http://www.w3.org/2000/svg" p-id="4364" xmlns:xlink="http://www.w3.org/1999/xlink" width="200" height="200"><path d="M896 896h42.666667v42.666667H85.333333v-42.666667h42.666667V170.730667A42.666667 42.666667 0 0 1 170.602667 128h469.461333C663.594667 128 682.666667 147.242667 682.666667 170.730667V896h170.666666V426.666667h-128v-42.666667h149.333334a21.333333 21.333333 0 0 1 21.333333 21.333333v490.666667z m-256 0V170.730667L170.602667 170.666667 170.666667 896h469.333333zM277.333333 298.666667h256v42.666666H277.333333v-42.666666z m0 256h256v42.666666H277.333333v-42.666666z m0-128h256v42.666666H277.333333v-42.666666z m0 256h256v42.666666H277.333333v-42.666666z" fill="#1296db" p-id="4365"></path></svg>